<svg width="390" height="844" viewBox="0 0 390 844" fill="none" xmlns="http://www.w3.org/2000/svg">
<path d="M0 0H390V844H0V0Z" fill="#0A0825"/>
<path d="M147 535H150V538H147V535Z" fill="#D9D9D9"/>
<path d="M330 370H333V373H330V370Z" fill="#D9D9D9"/>
<path d="M359 77H362V80H359V77Z" fill="#D9D9D9"/>
<path d="M166 160H169V163H166V160Z" fill="#D9D9D9"/>
<path d="M225 74H228V77H225V74Z" fill="#D9D9D9"/>
<path d="M69 163H72V166H69V163Z" fill="#D9D9D9"/>
<path d="M32 286H35V289H32V286Z" fill="#D9D9D9"/>
<path d="M54 391H57V394H54V391Z" fill="#D9D9D9"/>
<path d="M264 230H267V233H264V230Z" fill="#D9D9D9"/>
<path d="M354 252H357V255H354V252Z" fill="#D9D9D9"/>
<path d="M267 581H270V584H267V581Z" fill="#D9D9D9"/>
<path d="M298 518H301V521H298V518Z" fill="#D9D9D9"/>
<path d="M358 648H361V651H358V648Z" fill="#D9D9D9"/>
<path d="M30 768H33V771H30V768Z" fill="#D9D9D9"/>
<path d="M53 593H56V596H53V593Z" fill="#D9D9D9"/>
<path d="M370 759H373V762H370V759Z" fill="#D9D9D9"/>
<path d="M265 799H268V802H265V799Z" fill="#D9D9D9"/>
<path d="M174 810H177V813H174V810Z" fill="#D9D9D9"/>
<path d="M75 501H78V504H75V501Z" fill="#D9D9D9"/>
<path d="M78 504H81V507H78V504Z" fill="#D9D9D9"/>
<path d="M75 507H78V510H75V507Z" fill="#D9D9D9"/>
<path d="M72 504H75V507H72V504Z" fill="#D9D9D9"/>
<path d="M190 607H193V610H190V607Z" fill="#D9D9D9"/>
<path d="M193 610H196V613H193V610Z" fill="#D9D9D9"/>
<path d="M190 613H193V616H190V613Z" fill="#D9D9D9"/>
<path d="M187 610H190V613H187V610Z" fill="#D9D9D9"/>
<path d="M354 435H357V438H354V435Z" fill="#D9D9D9"/>
<path d="M357 438H360V441H357V438Z" fill="#D9D9D9"/>
<path d="M354 441H357V444H354V441Z" fill="#D9D9D9"/>
<path d="M351 438H354V441H351V438Z" fill="#D9D9D9"/>
<path d="M112 209H115V212H112V209Z" fill="#D9D9D9"/>
<path d="M115 212H118V215H115V212Z" fill="#D9D9D9"/>
<path d="M112 215H115V218H112V215Z" fill="#D9D9D9"/>
<path d="M109 212H112V215H109V212Z" fill="#D9D9D9"/>
<path d="M294 125H297V128H294V125Z" fill="#D9D9D9"/>
<path d="M297 128H300V131H297V128Z" fill="#D9D9D9"/>
<path d="M294 131H297V134H294V131Z" fill="#D9D9D9"/>
<path d="M291 128H294V131H291V128Z" fill="#D9D9D9"/>
<path d="M40 75H43V78H40V75Z" fill="#D9D9D9"/>
<path d="M43 78H46V81H43V78Z" fill="#D9D9D9"/>
<path d="M40 81H43V84H40V81Z" fill="#D9D9D9"/>
<path d="M37 78H40V81H37V78Z" fill="#D9D9D9"/>
</svg>
