<svg width="322" height="204" viewBox="0 0 322 204" fill="none" xmlns="http://www.w3.org/2000/svg">
<rect x="0.25" y="0.25" width="321.5" height="203.5" rx="9.75" fill="#F2F2F2" stroke="#DBDBDB" stroke-width="0.5"/>
<g clip-path="url(#clip0_203_563)">
<path d="M197.625 71.3334H197.639" stroke="#8C8C8C" stroke-opacity="0.53" stroke-width="2" stroke-linecap="round" stroke-linejoin="round"/>
<path d="M194.875 89.75H185.25C184.156 89.75 183.107 89.3022 182.333 88.5052C181.56 87.7082 181.125 86.6272 181.125 85.5V68.5C181.125 67.3728 181.56 66.2918 182.333 65.4948C183.107 64.6978 184.156 64.25 185.25 64.25H201.75C202.844 64.25 203.893 64.6978 204.667 65.4948C205.44 66.2918 205.875 67.3728 205.875 68.5V78.4167" stroke="#8C8C8C" stroke-opacity="0.53" stroke-width="2" stroke-linecap="round" stroke-linejoin="round"/>
<path d="M181.125 82.6667L188 75.5833C189.276 74.3183 190.849 74.3183 192.125 75.5833L196.25 79.8333" stroke="#8C8C8C" stroke-opacity="0.53" stroke-width="2" stroke-linecap="round" stroke-linejoin="round"/>
<path d="M196.25 79.8334L197.625 78.4167C198.901 77.1516 200.474 77.1516 201.75 78.4167" stroke="#8C8C8C" stroke-opacity="0.53" stroke-width="2" stroke-linecap="round" stroke-linejoin="round"/>
<path d="M207.25 91.1667L200.375 84.0834" stroke="#8C8C8C" stroke-opacity="0.53" stroke-width="2" stroke-linecap="round" stroke-linejoin="round"/>
<path d="M200.375 91.1667L207.25 84.0834" stroke="#8C8C8C" stroke-opacity="0.53" stroke-width="2" stroke-linecap="round" stroke-linejoin="round"/>
</g>
<path d="M155.531 97.3125C156.826 97.3125 157.875 95.9134 157.875 94.1875C157.875 92.4616 156.826 91.0625 155.531 91.0625C154.237 91.0625 153.188 92.4616 153.188 94.1875C153.188 95.9134 154.237 97.3125 155.531 97.3125Z" fill="#C8C8C8"/>
<path d="M164.125 94.1875C164.125 95.9134 163.076 97.3125 161.781 97.3125C160.487 97.3125 159.438 95.9134 159.438 94.1875C159.438 92.4616 160.487 91.0625 161.781 91.0625C163.076 91.0625 164.125 92.4616 164.125 94.1875Z" fill="#C8C8C8"/>
<path d="M158.656 109.812C160.814 109.812 162.562 107.714 162.562 105.125C162.562 102.536 160.814 100.438 158.656 100.438C156.499 100.438 154.75 102.536 154.75 105.125C154.75 107.714 156.499 109.812 158.656 109.812Z" fill="#C8C8C8"/>
<path fill-rule="evenodd" clip-rule="evenodd" d="M146.938 105.673L141.552 98.9407C140.992 98.2415 140.688 97.3728 140.688 96.4773C140.688 93.5459 143.772 91.6393 146.394 92.9503L147.044 93.2753C147.876 86.7399 153.457 81.6875 160.219 81.6875C166.98 81.6875 172.561 86.7399 173.393 93.2753L174.151 92.8965C176.723 91.6102 179.75 93.4809 179.75 96.3571C179.75 97.3832 179.342 98.3673 178.617 99.0929L173.5 104.21V105.542C173.5 107.28 174.727 108.777 176.432 109.118C177.814 109.394 178.913 110.318 179.353 111.547C179.81 112.824 179.489 114.277 178.334 115.296C175.539 117.762 170.494 120.75 162.562 120.75C154.618 120.75 150.569 117.742 148.597 115.059C147.045 112.946 146.938 110.324 146.938 108.281V105.673ZM146.938 96.7157L144.997 95.7454C144.453 95.4733 143.812 95.869 143.812 96.4773C143.812 96.6632 143.876 96.8435 143.992 96.9886L146.938 100.671V96.7157ZM176.407 96.8832L170.833 102.457C170.55 102.74 170.375 103.131 170.375 103.562V105.542C170.375 108.77 172.654 111.549 175.819 112.182C176.204 112.259 176.367 112.477 176.411 112.599C176.432 112.66 176.431 112.705 176.422 112.739C176.414 112.769 176.387 112.847 176.266 112.953C173.961 114.987 169.631 117.625 162.562 117.625C155.525 117.625 152.448 115.022 151.115 113.208C150.23 112.004 150.062 110.353 150.062 108.281V94.9688C150.062 89.3596 154.61 84.8125 160.219 84.8125C165.767 84.8125 170.275 89.2607 170.373 94.7851L168.114 95.915C167.342 96.3009 167.029 97.2394 167.415 98.0113C167.801 98.7831 168.739 99.096 169.511 98.71L172.606 97.1626C172.626 97.1533 172.645 97.1437 172.664 97.1336L175.548 95.6916C176.043 95.4442 176.625 95.804 176.625 96.3571C176.625 96.5544 176.547 96.7437 176.407 96.8832Z" fill="#C8C8C8"/>
<defs>
<clipPath id="clip0_203_563">
<rect width="33" height="34" fill="white" transform="translate(177 60)"/>
</clipPath>
</defs>
</svg>
