<svg width="271" height="98" viewBox="0 0 271 98" fill="none" xmlns="http://www.w3.org/2000/svg">
<path d="M0 37C0 25.9543 8.9543 17 20 17H251C262.046 17 271 25.9543 271 37V78C271 89.0457 262.046 98 251 98H20C8.95431 98 0 89.0457 0 78V37Z" fill="#910172"/>
<path d="M0 20C0 8.9543 8.9543 0 20 0H251C262.046 0 271 8.95431 271 20V61C271 72.0457 262.046 81 251 81H20C8.95431 81 0 72.0457 0 61V20Z" fill="#CE0184"/>
<path d="M82 46V44H80V42H84V44H90V40H82V38H80V34H82V32H92V34H94V36H90V34H84V38H92V40H94V44H92V46H82Z" fill="white"/>
<path d="M102 46V34H98V32H110V34H106V46H102Z" fill="white"/>
<path d="M112 46V36H114V34H116V32H122V34H124V36H126V46H122V42H116V46H112ZM116 40H122V36H120V34H118V36H116V40Z" fill="white"/>
<path d="M128 46V32H140V34H142V40H138V42H140V44H142V46H136V44H134V42H132V46H128ZM132 40H136V38H138V34H132V40Z" fill="white"/>
<path d="M150 46V34H146V32H158V34H154V46H150Z" fill="white"/>
<path d="M180 42V32H186V38H184V42H180ZM180 46V44H184V46H180Z" fill="white"/>
</svg>
