<svg width="24" height="24" viewBox="0 0 24 24" fill="none" xmlns="http://www.w3.org/2000/svg">
<path fill-rule="evenodd" clip-rule="evenodd" d="M14 2H10V4H8V6H6V8H4V10H2V12H4V22H11V16H13V22H20V12H22V10H20V8H18V6H16V4H14V2ZM14 4V6H16V8H18V10H20V12H18V20H15V14H9V20H6V12H4V10H6V8H8V6H10V4H14Z" fill="#2F51CF"/>
<path d="M6 8H9V20H6V8Z" fill="#2F51CF"/>
<path d="M15 8H18V20H15V8Z" fill="#2F51CF"/>
<path d="M8 6H16V14H8V6Z" fill="#2F51CF"/>
<path d="M4 10H7V13H4V10Z" fill="#2F51CF"/>
<path d="M10 4H14V7H10V4Z" fill="#2F51CF"/>
<path d="M16 10H20V13H16V10Z" fill="#2F51CF"/>
</svg>
