<svg width="194" height="172" viewBox="0 0 194 172" fill="none" xmlns="http://www.w3.org/2000/svg">
<path d="M12.5 54.75V48.5H6.25V42.25H0V23.5H6.25V17.25H12.5V6.25H43.75V17.25H18.75V23.5H12.5V42.25H18.75H31.25V36H25V25H43.75V54.75H12.5Z" fill="#2F51CF"/>
<path d="M50 54.75V23.5H56.25V17.25H62.5V1.5L81 6.25L81.25 17.25H87.5V23.5H93.75V54.75H81.25V42.25H62.5V54.75H50ZM62.5 31.25H81.25V23.5H75V17.25H68.75V23.5H62.5V31.25Z" fill="#2F51CF"/>
<path d="M100 54.75V11H112.5V17.25H118.75V23.5H125V17.25H131.25V11H143.75V54.75H131.25V29.75H125V42.25H118.75V29.75H112.5V54.75H100Z" fill="#2F51CF"/>
<path d="M150 54.75L151 6.25H193.75V17.25H162.5V25H187.5V36H162.5V43.75H193.75V54.75H150Z" fill="#2F51CF"/>
<path d="M13.02 172V159H0.0199966V81H26.02V155H65.02V81H91.02V159H78.02V172H13.02Z" fill="#2F51CF"/>
<path d="M115.98 172V159H102.98V142H128.98V155H167.98V133H115.98V120H102.98V94H115.98V77H180.98V90H193.98V107H167.98V94H128.98V116H180.98V133H193.98V159H180.98V172H115.98Z" fill="#2F51CF"/>
<path d="M12.5 43.75V37.5H6.25V31.25H0V12.5H6.25V6.25H12.5V0H43.75V6.25H18.75V12.5H12.5V31.25H18.75V37.5H31.25V25H25V18.75H43.75V43.75H12.5Z" fill="#9AAAE6"/>
<path d="M50 43.75V12.5H56.25V6.25L62.5 1.5V0H81.25V6.25H87.5V12.5H93.75V43.75H81.25V31.25H62.5V43.75H50ZM62.5 25H81.25V12.5H75V6.25H68.75V12.5H62.5V25Z" fill="#9AAAE6"/>
<path d="M100 43.75V0H112.5V6.25H118.75V12.5H125V6.25H131.25V0H143.75V43.75H131.25V18.75H125V31.25H118.75V18.75H112.5V43.75H100Z" fill="#9AAAE6"/>
<path d="M150 43.75V0H193.75V6.25H162.5V18.75H187.5V25H162.5V37.5H193.75V43.75H150Z" fill="#9AAAE6"/>
<path d="M13.02 155V142H0.0199966V64H26.02V142H65.02V64H91.02V142H78.02V155H13.02Z" fill="#9AAAE6"/>
<path d="M115.98 155V142H102.98V129H128.98V142H167.98V116H115.98V103H102.98V77H115.98V64H180.98V77H193.98V90H167.98V77H128.98V103H180.98V116H193.98V142H180.98V155H115.98Z" fill="#9AAAE6"/>
</svg>
